<?xml version="1.0" encoding="utf-8"?>
<!-- Generator: Adobe Illustrator 25.2.3, SVG Export Plug-In . SVG Version: 6.00 Build 0)  -->
<svg version="1.1" id="Capa_1" xmlns="http://www.w3.org/2000/svg" xmlns:xlink="http://www.w3.org/1999/xlink" x="0px" y="0px"
	 viewBox="0 0 793 486.6" style="enable-background:new 0 0 793 486.6;" xml:space="preserve">
<style type="text/css">
	.st0{fill:none;stroke:#FFFFFF;stroke-miterlimit:10;}
	.st1{fill:#439AFF;}
	.st2{fill:#439AFF;stroke:#FFFFFF;stroke-miterlimit:10;}
	.st3{fill:#004F9E;}
</style>
<line class="st0" x1="544.9" y1="3.9" x2="446.7" y2="29.7"/>
<path class="st1" d="M-66.7,377.1c58.8-38.9,207.5-97.4,456.9,55.6c127.6,78.3,184.5-28.3,206.3-189.4
	c35-258.8-20.9-658.3-20.9-658.3L320.8-241.7"/>
<path class="st1" d="M848,231.9c0,0,89.1-196.2-158.5-166.8s-145.7-32.7-154.2,35.1c-8.5,67.8,55.4,176.7,55.4,176.7
	s54.3-97.6,202.9-36.7"/>
<polyline class="st1" points="-13.3,291.4 -28.3,-86.5 222.7,-49.4 "/>
<path class="st2" d="M-19.5,438.7c0,0,12.8-5.9,37.2-12.1"/>
<path class="st3" d="M211,44.5c0,0,180,180,275,54.4S455.4-114,455.4-114"/>
<path class="st3" d="M353.5,135.4c0,0-56.3-37.7-95.2-42C245.8,92-19.2,53.1-26.8,46.4c-274-237.5,477.6-73.2,565.7,7.2
	c50.6,46.2,36.5,39.3,6,36.3c-22.6-2.2-54.1-2.1-74.9,23.3"/>
<path class="st3" d="M820,203c10,45.6-203.8-104.9-254.4-110.9c-50.7-6-213.9-138.6-213.9-138.6L699.6-95L897,0"/>
<path class="st3" d="M5.6,102.8"/>
</svg>
